# xmcd
#
# Track frame offsets:
#	150
#	16928
#	30606
#	45928
#	62008
#	76624
#	91603
#	109749
#	128431
#	145261
#	159995
#	177212
#
# Disc length: 2571 seconds
#
# Revision: 0
# Processed by: cddbd v1.5.1PL2 Copyright (c) Steve Scherf et al.
# Submitted via: audiograbber 1.83.01
#
DISCID=7c0a090c
DTITLE=ливакгс яайимтфгс - MADE IN GREECE
DYEAR=2006
DGENRE=екк поп
TTITLE0=MADE IN GREECE
TTITLE1=саяымийос
TTITLE2=татоуаф
TTITLE3=то йаяаби тым ии
TTITLE4=поиа ле йатаяастгйе
TTITLE5=ле ацапаеи
TTITLE6=циа йахе дайяу лоу
TTITLE7=лг сталатас
TTITLE8=ека ма доуле то жеццаяи
TTITLE9=лг ле стгсеис
TTITLE10=йаме лиа еувг
TTITLE11=ма еисаи ейеи
EXTD=
EXTT0=
EXTT1=
EXTT2=
EXTT3=
EXTT4=
EXTT5=
EXTT6=
EXTT7=
EXTT8=
EXTT9=
EXTT10=
EXTT11=
PLAYORDER=
